# xmcd
#
# Track frame offsets: 
#        150
#        18205
#        41077
#        62680
#        82662
#        104035
#        120537
#        136417
#        158305
#        174672
#        190960
#        209575
#        228047
#        246392
#
# Disc length: 3501 seconds
#
# Revision: 5
# Processed by: cddbd v1.4PL0 Copyright (c) Steve Scherf et al.
# Submitted via: ExactAudioCopy v0.95a3
#
DISCID=b40dab0e
DTITLE=Various Artist - Blue Streak Soundtrack
DYEAR=1999
DGENRE=Soundtrack
TTITLE0=Jay-Z - Girl's Best Friend
TTITLE1=Tyrese - Criminal Mind (feat. Heavy D)
TTITLE2=So Plush - Damn (Should've Treated You Right) (feat.Ja-Rule)
TTITLE3=Kelly Price - While You Were Gone
TTITLE4=Keith Sweat - I Put You On (feat. Da Brat)
TTITLE5=Raekwon - Blue Diamond (feat.Chip Banks)
TTITLE6=TQ and Krarzie Bone - Get Away
TTITLE7=Hot Boy$ - Rock Ice (feat, Big Tymers)
TTITLE8=Foxy Brown - Na Na Be Like
TTITLE9=Rehab - Gimme My Money
TTITLE10=Da Shortiez - Da Freak (feat. 69 Boyz)
TTITLE11=Ruff Endz - Please Don't Forget About Me
TTITLE12=Strings - All Eyes On Me (Revisiting Cold Blooded) (feat.Keit
TTITLE12=h Sweat)
TTITLE13=Playa - Playboy Like Me
EXTD=
EXTT0=Jay-Z
EXTT1=Tyrese featuring Heavy D
EXTT2=So Plush featuring Ja Rule\n
EXTT3=Kelly Price
EXTT4=Keith Sweat featuring Da Brat
EXTT5=Raekwon featuring Chip Banks
EXTT6=TQ and Krayzie Bone
EXTT7=Hot Boy$ featuring Big Tymers
EXTT8=Foxy Brown
EXTT9=Rehab
EXTT10=Da Shortiez featuring 69 Boyz
EXTT11=Ruff Endz
EXTT12=Strongs featuring Keith Sweat
EXTT13=Playa
PLAYORDER=
